<?xml version="1.0" encoding="UTF-8" standalone="no"?>
<svg width="999px" height="999px" viewBox="0 0 999 999" version="1.1" xmlns="http://www.w3.org/2000/svg" xmlns:xlink="http://www.w3.org/1999/xlink">
    <!-- Generator: Sketch 45.1 (43504) - http://www.bohemiancoding.com/sketch -->
    <title>Tile Coloring </title>
    <desc>Created with Sketch.</desc>
    <defs>
        <rect id="path-1" x="0" y="0" width="999" height="999"></rect>
    </defs>
    <g id="Page-1" stroke="none" stroke-width="1" fill="none" fill-rule="evenodd">
        <g id="Tile-Coloring-">
            <g id="Tile">
                <g id="Rectangle-Copy-14">
                    <use fill="#9A5011" fill-rule="evenodd" xlink:href="#path-1"></use>
                    <rect stroke="#703B0E" stroke-width="1" x="0.5" y="0.5" width="998" height="998"></rect>
                </g>
                <circle id="Oval" fill="#703B0E" cx="265.5" cy="355.5" r="13.5"></circle>
                <circle id="Oval-Copy-18" fill="#703B0E" cx="265.5" cy="355.5" r="13.5"></circle>
                <circle id="Oval-Copy-23" fill="#703B0E" cx="526.5" cy="435.5" r="13.5"></circle>
                <circle id="Oval-Copy-19" fill="#703B0E" cx="103.5" cy="760.5" r="13.5"></circle>
                <circle id="Oval-Copy-12" fill="#46270C" cx="400.5" cy="121.5" r="13.5"></circle>
                <circle id="Oval-Copy-10" fill="#703B0E" cx="319.5" cy="526.5" r="13.5"></circle>
                <circle id="Oval-Copy-8" fill="#703B0E" cx="292.5" cy="85.5" r="13.5"></circle>
                <circle id="Oval-Copy-16" fill="#46270C" cx="517.5" cy="58.5" r="13.5"></circle>
                <circle id="Oval-Copy-11" fill="#703B0E" cx="276.333954" cy="177.333954" r="24.333954"></circle>
                <circle id="Oval-Copy-7" fill="#703B0E" cx="166.5" cy="220.5" r="13.5"></circle>
                <circle id="Oval-Copy-15" fill="#46270C" cx="499.5" cy="247.5" r="13.5"></circle>
                <circle id="Oval-Copy" fill="#46270C" cx="238.5" cy="427.5" r="13.5"></circle>
                <circle id="Oval-Copy-4" fill="#703B0E" cx="121.5" cy="382.143014" r="40.1430145"></circle>
                <circle id="Oval-Copy-9" fill="#703B0E" cx="84.0224085" cy="508.5" r="30.0224085"></circle>
                <circle id="Oval-Copy-20" fill="#46270C" cx="48.0224085" cy="597.022409" r="30.0224085"></circle>
                <circle id="Oval-Copy-22" fill="#46270C" cx="187.074869" cy="727.074869" r="16.0748688"></circle>
                <circle id="Oval-Copy-17" fill="#46270C" cx="192.022409" cy="543.022409" r="30.0224085"></circle>
                <circle id="Oval-Copy-2" fill="#46270C" cx="121.5" cy="328.5" r="13.5"></circle>
                <circle id="Oval-Copy-5" fill="#703B0E" cx="39.8308608" cy="246.830861" r="39.8308608"></circle>
                <circle id="Oval-Copy-13" fill="#46270C" cx="89.2392523" cy="126.856157" r="24.8055648"></circle>
                <circle id="Oval-Copy-6" fill="#703B0E" cx="196.870835" cy="124.870835" r="26.7908868"></circle>
                <circle id="Oval-Copy-21" fill="#703B0E" cx="647.790887" cy="62.7908868" r="26.7908868"></circle>
                <circle id="Oval-Copy-14" fill="#46270C" cx="359.790887" cy="287.790887" r="26.7908868"></circle>
                <circle id="Oval-Copy-3" fill="#703B0E" cx="139.550471" cy="634.550471" r="40.5504712"></circle>
            </g>
            <g id="Left-Side" transform="translate(-99.000000, 0.000000)">
                <circle id="Oval-3" fill="#417505" cx="100.030147" cy="100.030147" r="100.030147"></circle>
                <circle id="Oval-3-Copy-2" fill="#619E1A" cx="67.4809314" cy="274.480931" r="67.4809314"></circle>
                <circle id="Oval-3-Copy" fill="#7ED321" cx="94.8729735" cy="202.872973" r="67.8729735"></circle>
                <circle id="Oval-3-Copy-3" fill="#417505" cx="130.872973" cy="364.872973" r="67.8729735"></circle>
                <circle id="Oval-3-Copy-4" fill="#619E1A" cx="94.8729735" cy="454.872973" r="67.8729735"></circle>
                <circle id="Oval-3-Copy-9" fill="#619E1A" cx="94.8729735" cy="661.872973" r="67.8729735"></circle>
                <circle id="Oval-3-Copy-14" fill="#619E1A" cx="121.872973" cy="949.872973" r="67.8729735"></circle>
                <circle id="Oval-3-Copy-6" fill="#417505" cx="130.872973" cy="526.872973" r="67.8729735"></circle>
                <circle id="Oval-3-Copy-11" fill="#417505" cx="139.872973" cy="814.872973" r="67.8729735"></circle>
                <circle id="Oval-3-Copy-13" fill="#417505" cx="94.8729735" cy="877.872973" r="67.8729735"></circle>
                <circle id="Oval-3-Copy-7" fill="#7ED321" cx="98.4831036" cy="593.483104" r="44.4831036"></circle>
                <circle id="Oval-3-Copy-12" fill="#7ED321" cx="98.4831036" cy="881.483104" r="44.4831036"></circle>
                <circle id="Oval-3-Copy-10" fill="#7ED321" cx="98.4831036" cy="773.483104" r="44.4831036"></circle>
                <circle id="Oval-3-Copy-5" fill="#7ED321" cx="160.965348" cy="493.965348" r="34.9653482"></circle>
                <circle id="Oval-3-Copy-8" fill="#417505" cx="139.872973" cy="706.872973" r="67.8729735"></circle>
            </g>
            <g id="Left-Side-Copy" transform="translate(513.000000, 0.000000) rotate(90.000000) translate(-513.000000, -0.000000) translate(405.000000, -513.000000)">
                <circle id="Oval-3" fill="#417505" cx="100.030147" cy="100.030147" r="100.030147"></circle>
                <circle id="Oval-3-Copy-2" fill="#619E1A" cx="67.4809314" cy="274.480931" r="67.4809314"></circle>
                <circle id="Oval-3-Copy" fill="#7ED321" cx="94.8729735" cy="202.872973" r="67.8729735"></circle>
                <circle id="Oval-3-Copy-3" fill="#417505" cx="130.872973" cy="364.872973" r="67.8729735"></circle>
                <circle id="Oval-3-Copy-4" fill="#619E1A" cx="94.8729735" cy="454.872973" r="67.8729735"></circle>
                <circle id="Oval-3-Copy-9" fill="#619E1A" cx="94.8729735" cy="661.872973" r="67.8729735"></circle>
                <circle id="Oval-3-Copy-14" fill="#619E1A" cx="121.872973" cy="949.872973" r="67.8729735"></circle>
                <circle id="Oval-3-Copy-6" fill="#417505" cx="130.872973" cy="526.872973" r="67.8729735"></circle>
                <circle id="Oval-3-Copy-11" fill="#417505" cx="139.872973" cy="814.872973" r="67.8729735"></circle>
                <circle id="Oval-3-Copy-13" fill="#417505" cx="94.8729735" cy="877.872973" r="67.8729735"></circle>
                <circle id="Oval-3-Copy-7" fill="#7ED321" cx="98.4831036" cy="593.483104" r="44.4831036"></circle>
                <circle id="Oval-3-Copy-12" fill="#7ED321" cx="98.4831036" cy="881.483104" r="44.4831036"></circle>
                <circle id="Oval-3-Copy-10" fill="#7ED321" cx="98.4831036" cy="773.483104" r="44.4831036"></circle>
                <circle id="Oval-3-Copy-5" fill="#7ED321" cx="160.965348" cy="493.965348" r="34.9653482"></circle>
                <circle id="Oval-3-Copy-8" fill="#417505" cx="139.872973" cy="706.872973" r="67.8729735"></circle>
            </g>
            <g id="Right-Side" transform="translate(891.000000, 0.000000)">
                <circle id="Oval-3" fill="#417505" cx="100.030147" cy="100.030147" r="100.030147"></circle>
                <circle id="Oval-3-Copy-2" fill="#619E1A" cx="67.4809314" cy="274.480931" r="67.4809314"></circle>
                <circle id="Oval-3-Copy" fill="#7ED321" cx="94.8729735" cy="202.872973" r="67.8729735"></circle>
                <circle id="Oval-3-Copy-3" fill="#417505" cx="130.872973" cy="364.872973" r="67.8729735"></circle>
                <circle id="Oval-3-Copy-4" fill="#619E1A" cx="94.8729735" cy="454.872973" r="67.8729735"></circle>
                <circle id="Oval-3-Copy-9" fill="#619E1A" cx="94.8729735" cy="661.872973" r="67.8729735"></circle>
                <circle id="Oval-3-Copy-14" fill="#619E1A" cx="121.872973" cy="949.872973" r="67.8729735"></circle>
                <circle id="Oval-3-Copy-6" fill="#417505" cx="130.872973" cy="526.872973" r="67.8729735"></circle>
                <circle id="Oval-3-Copy-11" fill="#417505" cx="139.872973" cy="814.872973" r="67.8729735"></circle>
                <circle id="Oval-3-Copy-13" fill="#417505" cx="94.8729735" cy="877.872973" r="67.8729735"></circle>
                <circle id="Oval-3-Copy-7" fill="#7ED321" cx="98.4831036" cy="593.483104" r="44.4831036"></circle>
                <circle id="Oval-3-Copy-12" fill="#7ED321" cx="98.4831036" cy="881.483104" r="44.4831036"></circle>
                <circle id="Oval-3-Copy-10" fill="#7ED321" cx="98.4831036" cy="773.483104" r="44.4831036"></circle>
                <circle id="Oval-3-Copy-8" fill="#417505" cx="139.872973" cy="706.872973" r="67.8729735"></circle>
                <circle id="Oval-3-Copy-15" fill="#417505" cx="49.5628384" cy="427.562838" r="31.5628384"></circle>
            </g>
            <g id="Left-Side-Copy-2" transform="translate(513.000000, 999.000000) rotate(90.000000) translate(-513.000000, -999.000000) translate(405.000000, 486.000000)">
                <circle id="Oval-3" fill="#417505" cx="100.030147" cy="100.030147" r="100.030147"></circle>
                <circle id="Oval-3-Copy-2" fill="#619E1A" cx="67.4809314" cy="274.480931" r="67.4809314"></circle>
                <circle id="Oval-3-Copy" fill="#7ED321" cx="94.8729735" cy="202.872973" r="67.8729735"></circle>
                <circle id="Oval-3-Copy-3" fill="#417505" cx="130.872973" cy="364.872973" r="67.8729735"></circle>
                <circle id="Oval-3-Copy-4" fill="#619E1A" cx="94.8729735" cy="454.872973" r="67.8729735"></circle>
                <circle id="Oval-3-Copy-9" fill="#619E1A" cx="94.8729735" cy="661.872973" r="67.8729735"></circle>
                <circle id="Oval-3-Copy-14" fill="#619E1A" cx="121.872973" cy="949.872973" r="67.8729735"></circle>
                <circle id="Oval-3-Copy-6" fill="#417505" cx="130.872973" cy="526.872973" r="67.8729735"></circle>
                <circle id="Oval-3-Copy-11" fill="#417505" cx="139.872973" cy="814.872973" r="67.8729735"></circle>
                <circle id="Oval-3-Copy-13" fill="#417505" cx="94.8729735" cy="877.872973" r="67.8729735"></circle>
                <circle id="Oval-3-Copy-7" fill="#7ED321" cx="98.4831036" cy="593.483104" r="44.4831036"></circle>
                <circle id="Oval-3-Copy-12" fill="#7ED321" cx="98.4831036" cy="881.483104" r="44.4831036"></circle>
                <circle id="Oval-3-Copy-10" fill="#7ED321" cx="98.4831036" cy="773.483104" r="44.4831036"></circle>
                <circle id="Oval-3-Copy-8" fill="#417505" cx="139.872973" cy="706.872973" r="67.8729735"></circle>
            </g>
        </g>
    </g>
</svg>